<?xml version="1.0" standalone="yes"?>
<svg xmlns="http://www.w3.org/2000/svg" width="712" height="712">
<path style="fill:#ffffff; stroke:none;" d="M0 0L0 712L712 712L712 0L0 0z"/>
<path style="fill:#020402; stroke:none;" d="M100 203L100 338C100.779 336.231 100.912 334.964 101 333C112.722 335.418 124.176 336.506 136 338C133.485 334.383 130.122 331.224 128.613 327C126.145 320.089 126.726 312.09 127.921 305C131.425 284.207 144.821 263.882 161 250.805C164.856 247.688 169.78 242.987 175 242.6C179.162 242.292 182.838 245.802 187 243.932C191.113 242.084 194.312 237.808 198 235.209C206.442 229.259 215.813 223.947 225 219.245C228.243 217.584 231.523 215.067 235 213.972C241.646 211.88 245.614 221.635 253 220.66C259.457 219.807 265.812 216.948 272 215.025C284.837 211.036 297.824 206.727 311 204C305.293 201.605 297.154 203 291 203L248 203L100 203z"/>
<path style="fill:#01f605; stroke:none;" d="M136 338C124.613 335.886 112.517 334.551 101 333C100.522 339.055 99.9874 344.901 100 351C100.005 353.328 99.6069 356.34 101.028 358.362C102.898 361.023 107.042 361.884 110 362.572C117.604 364.34 125.482 364.21 133 366C122.512 375.449 133.594 397.947 138.889 408C152.523 433.886 173.333 455.715 198 471.413C206.173 476.614 216.18 483.994 226 485C227.146 478.826 227.87 472.279 228 466C230.783 471.539 231.74 477.265 236.105 481.985C243.32 489.787 254.089 494.35 264 497.667C280.665 503.243 299.286 508.853 317 509L316 498C326.171 505.235 337.033 505 349 505C366.049 505 382.996 504 400 504C399.873 498.738 398.746 495.604 394 493C402.932 489.047 413.413 488.195 423 486.586C438.898 483.919 455.871 480.134 472 480C470.067 474.299 463.35 472.05 461 466C477.863 459.048 494.405 453.956 512 449C510.61 445.646 505.955 440.347 507.495 436.529C508.919 433.003 514.744 431.546 518 430.64C528.472 427.727 539.209 425.371 550 424C548.063 417.881 544.004 412.644 541 407C548.268 404.018 555.473 400.743 563 398.435C567.426 397.078 573.866 396.392 577.667 393.697C581.159 391.221 577.659 386.664 580.411 383.61C586.067 377.332 596.532 377.363 604 375L604 373L601 372L601 370C616.234 365.179 629.415 353.644 641 343.17C645.384 339.206 651.278 335.872 653 330C640.051 325.78 626.261 320.658 614 314.742C604.866 310.334 595.721 303.806 586 301L587 297C578.822 293.845 570.042 292.03 562 288.666C552.997 284.899 544.438 279.581 535 277C535.895 274.958 536.536 273.172 537 271C518.426 266.703 500.488 259.279 482 255C485.394 252.702 488.681 251.005 490 247C483.896 246.738 478.027 245.14 472 244.285C460.142 242.604 448.627 241.69 437 239C437.99 235.65 437.998 232.486 438 229C425.311 227.388 412.878 223.856 400 224.004C395.527 224.055 387.079 227.306 383.318 224.357C379.298 221.205 381.468 214.21 382 210C368.868 210.109 355.009 211.561 342 213.428C332.8 214.749 324.297 217.169 315 216C315.038 211.435 315.989 207.421 317 203C310.724 203.134 305.01 205.221 299 206.849C284.01 210.908 269.182 217.087 254 220.235C246.083 221.877 242.975 211.72 236 213.117C232.154 213.888 228.447 216.958 225 218.742C215.803 223.5 206.588 228.718 198 234.52C194.174 237.105 191.018 241.116 187 243.304C182.705 245.643 178.504 241.705 174 242.434C167.307 243.516 160.836 249.816 156 254.171C152.331 257.474 148.882 261.063 145.9 265C131.534 283.966 116.465 317.994 136 338z"/>
<path style="fill:#020402; stroke:none;" d="M315 216C324.485 217.76 333.595 214.779 343 213.428C355.713 211.603 369.17 210.265 382 210C381.278 213.89 379.343 221.194 382.603 224.393C386.059 227.784 394.731 224.225 399 224.039C412.211 223.465 424.949 227.969 438 229C437.99 232.455 437.802 235.632 437 239C447.644 242.462 458.894 242.773 470 244.156C476.715 244.992 483.198 246.86 490 247C488.128 250.422 485.376 252.112 482 254C487.513 258.125 495.436 259.825 502 261.709C513.304 264.955 525.4 269.287 537 271L535 277C552.472 283.779 568.796 292.031 587 297L586 301C608.264 310.318 629.149 324.48 653 330L653 203L394 203L338 203C332.999 203 321.831 200.909 317.703 204.028C314.418 206.51 315.01 212.395 315 216M226.318 254.785C223.613 255.957 224.016 259.595 224.001 262.001C223.953 269.292 225.025 276.196 227.756 283C234.88 300.744 251.247 314.761 271 314.996C274.38 315.036 278.712 315.625 281.891 314.258C285.351 312.77 285.88 309.375 285.985 306C286.191 299.355 285.104 292.379 283.215 286C280.082 275.418 271.455 267.269 261 264.04C255.123 262.225 248.884 262.103 243 260.402C238.37 259.064 231.252 252.648 226.318 254.785z"/>
<path style="fill:#01f605; stroke:none;" d="M231 263C231 267.321 230.674 271.778 231.761 276C237.23 297.247 255.992 308.986 277 309C273.117 300.836 264.551 293.765 257 289.066C254.02 287.211 246.55 284.887 245.921 280.892C245.106 275.711 253.492 280.46 255 281.258C264.241 286.152 270.619 294.096 279 300C278.991 296.604 278.935 293.311 278.076 290C273.354 271.793 257.457 270.478 242 266.66C238.211 265.724 234.821 263.819 231 263z"/>
<path style="fill:#020402; stroke:none;" d="M190 314C180.756 330.884 174.244 349.412 166.434 367C162.249 376.425 155.849 386.615 155 397L164 397C165.5 391.515 167.794 386.232 170.009 381.001C170.876 378.954 171.477 376.347 173.43 375.028C177.798 372.078 187.896 374 193 374C197.137 374 204.06 372.689 207.432 375.603C212.421 379.916 215.02 390.87 217 397L226 397C224.526 386.119 218.283 375.07 214 365C206.84 348.165 200.593 330.119 192 314L190 314M238 316L238 397L269 397L269 389L247 389L247 316L238 316M282 316L282 397L291 397L291 357L332 357L332 397L341 397L341 316L332 316L332 349L291 349L291 316L282 316M362 316L362 397L404 397L404 389L371 389L371 357L403 357L403 349L371 349L371 324L404 324L404 316L362 316M420 316L420 397L429 397L429 362C437.761 366.476 443.965 380.074 449.576 388C451.472 390.679 453.238 394.295 456.184 395.972C458.989 397.568 462.897 397 466 397C461.127 384.331 449.42 371.617 441 361C458.66 359.448 468.251 336.452 455.695 323.108C446.945 313.808 431.482 316 420 316M481 316L481 397C493.334 397 509.638 399.795 519.957 391.468C532.436 381.396 530.485 359.167 514 355C516.309 351.164 519.123 347.363 520.363 343C521.091 340.438 521.1 337.64 520.91 335C519.406 314.133 496.168 316 481 316z"/>
<path style="fill:#01f605; stroke:none;" d="M429 324L429 354C435.483 353.999 442.537 353.944 447.811 349.501C454.043 344.25 453.704 331.488 446.945 326.819C441.713 323.204 435.014 324 429 324M489 324L489 352C495.275 352 502.53 352.384 507.811 348.298C514.749 342.93 513.255 330.295 505.995 326.09C500.969 323.177 494.573 324 489 324z"/>
<path style="fill:#020402; stroke:none;" d="M652 333C635.304 346.585 620.796 360.758 601 370L601 372C602.479 372.986 602.203 373 604 373L604 375C596.643 376.812 584.746 377.112 579.644 383.61C577.12 386.823 580.776 391.142 576.812 393.697C573.055 396.117 567.266 396.884 563 398.144C555.543 400.347 547.762 403.152 541 407C543.215 413.049 547.278 418.178 550 424C539.228 424.851 528.407 427.574 518 430.374C514.539 431.305 508.882 432.478 507.329 436.213C505.574 440.433 509.984 445.648 512 449C494.843 452.541 476.134 456.983 461 466C462.644 472.896 468.841 474.392 472 480C454.238 480.049 435.487 484.212 418 487.25C410.385 488.573 400.622 488.839 394 493C397.957 496.19 399.72 498.887 400 504C372.815 504 340.884 511.09 316 498L317 509L653 509L653 385L653 350C653 344.65 654.085 337.969 652 333z"/>
<path style="fill:#01f605; stroke:none;" d="M189 334C185.629 344.503 178.419 355.102 177 366L204 366C201.676 354.865 195.157 344.908 192 334L189 334z"/>
<path style="fill:#020402; stroke:none;" d="M100 359L100 509L310 509C304.586 506.57 297.812 506.455 292 505.119C267.676 499.527 236.691 493.092 229 466C226.457 471.664 226.775 478.87 226 485C216.51 483.308 207.037 476.527 199 471.413C174.476 455.806 154.164 434.306 140.003 409C133.687 397.713 123.427 377.596 133 366C127.593 364.402 121.601 364.588 116 363.576C110.422 362.568 105.401 360.541 100 359z"/>
<path style="fill:#01f605; stroke:none;" d="M489 360L489 389C497.194 389 506.811 390.287 513.892 385.182C520.611 380.339 520.971 367.736 513.895 363.075C506.846 358.431 496.999 360 489 360z"/>
<path style="fill:#020402; stroke:none;" d="M324 459L324 457C318.164 455.574 312.55 459.751 307.225 455.347C300.829 450.058 303.131 439.333 311.001 436.786C314.645 435.607 318.501 438.209 322 439L323 434C319.779 432.569 316.583 431.234 313 431.13C292.074 430.521 292.625 465.111 314 462.825C317.763 462.422 320.827 460.954 324 459M337 431.558C326.981 434.174 322.595 447.309 328.009 455.96C331.845 462.088 339.216 464.115 346 462.467C366.497 457.486 357.355 426.242 337 431.558M363 431L363 463L368 463L368 440C370.685 444.596 373.166 449.322 375.745 453.981C376.723 455.747 377.819 458.243 380.108 458.534C382.418 458.827 383.747 456.649 384.738 454.941C387.485 450.205 389.898 445.05 392 440C394.115 447.155 393 455.567 393 463L398 463L398 431C388.031 431.326 384.349 443.955 381 452C375.786 444.676 373.374 431.34 363 431z"/>
<path style="fill:#01f605; stroke:none;" d="M338.005 436.743C326.019 441.346 332.887 462.602 345.956 456.991C357.5 452.034 350.612 431.902 338.005 436.743z"/>
<path style="fill:#020402; stroke:none;" d="M290.264 457.345C287.449 458.411 288.66 463.261 291.736 462.248C294.643 461.292 293.17 456.245 290.264 457.345z"/>
</svg>
